
<svg width="40px" height="40px" viewBox="0 0 40 40" version="1.1" xmlns="http://www.w3.org/2000/svg" xmlns:xlink="http://www.w3.org/1999/xlink">
    <!-- Generator: Sketch 48.2 (47327) - http://www.bohemiancoding.com/sketch -->
    <desc>Created with Sketch.</desc>
    <defs>
        <linearGradient x1="1.41638472e-14%" y1="50%" x2="100%" y2="50%" id="linearGradient-1">
            <stop stop-color="#874DA2" offset="0%"></stop>
            <stop stop-color="#C43A30" offset="100%"></stop>
        </linearGradient>
    </defs>
    <g id="hero" stroke="none" stroke-width="1" fill="none" fill-rule="evenodd">
        <g id="about" transform="translate(-552.000000, -333.000000)" fill="url(#linearGradient-1)" fill-rule="nonzero">
            <g id="social-icons" transform="translate(477.000000, 331.000000)">
                <g id="bitbucket" transform="translate(75.000000, 2.000000)">
                    <g id="bitbucket-icon">
                        <path d="M19.9766091,15.887276 L19.9758782,15.887276 C19.9738477,15.887276 19.9715127,15.887276 19.9691371,15.887276 C18.9170355,15.887276 17.9347005,16.2460814 17.2030051,16.8982986 C16.4911269,17.5328869 16.099736,18.3749502 16.1013604,19.2692851 C16.1037157,21.1237647 17.8300102,22.6375385 19.9492386,22.6431855 C19.9528325,22.6431855 19.9559797,22.6431855 19.9595533,22.6431855 C20.999797,22.6431855 21.9749848,22.2857557 22.7062741,21.6356923 C23.421665,21.0000362 23.8158782,20.1586968 23.8162843,19.2671674 C23.8178274,17.4080724 22.0951066,15.8919095 19.9766091,15.887276 Z M21.5593909,20.6101538 C21.1346193,20.9877285 20.5667411,21.1952217 19.9599594,21.1952217 C19.9580102,21.1952217 19.9556548,21.1952217 19.9536447,21.1952217 C18.7266599,21.1916742 17.727269,20.3273122 17.7257259,19.2675475 C17.7249137,18.7606154 17.9473706,18.2826425 18.3515127,17.9220995 C18.7766091,17.543457 19.3508223,17.3352398 19.9695431,17.3352398 C19.9702741,17.3352398 19.9715127,17.3352398 19.9727107,17.3352398 C21.1973198,17.3377014 22.192731,18.2041629 22.1919188,19.2664434 C22.1915127,19.7709321 21.9670457,20.2481629 21.5593909,20.6101538 Z" id="Shape"></path>
                        <path d="M33.9784772,27.0931403 L33.9761218,27.0927783 C33.5589036,27.0276923 33.157198,27.1153665 32.7526497,27.36 L32.6107005,27.4462986 C32.3882234,27.5816833 32.1660914,27.7174299 31.9360812,27.8400724 C30.5850152,28.5580271 29.0855635,29.1278914 27.3517157,29.5818281 C25.4889746,30.0710226 23.506132,30.366914 21.4586193,30.4620452 C20.3525685,30.5133032 19.2473503,30.5090317 18.1742132,30.4478552 C17.1288731,30.3892127 16.0862538,30.2757647 15.0750051,30.1099729 C13.296731,29.8186425 11.6192487,29.3728869 10.0880609,28.7846335 C8.89283249,28.3261538 7.96605076,27.8729412 7.17409137,27.36 C7.03009137,27.2663167 6.86075127,27.1899367 6.68548223,27.1397466 C6.27029442,27.0188416 5.82529949,27.0584615 5.46525888,27.2461719 C5.10594924,27.4328326 4.86085279,27.7407421 4.77441624,28.1151131 C4.7275533,28.3201448 4.72406091,28.5293756 4.76410152,28.71819 C4.9711269,29.7087421 5.18410152,30.6992217 5.40060914,31.6883258 C5.56791878,32.4526335 5.73807107,33.2165792 5.90822335,33.9801629 L6.09340102,34.8133213 C6.19013198,35.2467692 6.38091371,35.6550226 6.65973604,36.0269321 C6.93766497,36.3977557 7.2866599,36.7357104 7.72605076,37.0599095 C8.35898477,37.5272398 9.11569543,37.9316561 10.0389036,38.2964706 C11.4050761,38.8369231 12.9548832,39.2364163 14.7767919,39.5178281 C15.9934416,39.7058462 17.250599,39.8239095 18.4395533,39.8610679 L21.2651371,39.8907511 L21.4304975,39.8678009 C22.4219289,39.8317466 23.4367513,39.7472579 24.4460508,39.6167964 C25.7888325,39.4428959 26.9987411,39.20181 28.1460305,38.8797104 C29.3231269,38.5492127 30.3148832,38.1642715 31.1778274,37.7022262 C31.8127919,37.3624615 32.3259289,37.004 32.7459086,36.6074208 C33.3360406,36.0513303 33.6921015,35.463819 33.8341523,34.8126697 L34.5019289,31.8092308 C34.7243858,30.7953665 34.9433503,29.7811403 35.1571168,28.7662624 C35.1947208,28.5873665 35.1999391,28.3915113 35.1729543,28.2013394 C35.0936041,27.6301176 34.6249137,27.1949321 33.9784772,27.0931403 Z M32.9076954,31.5313665 L32.2399188,34.535819 C32.1569949,34.9151855 31.9428223,35.2569774 31.5653198,35.6129593 C31.2480812,35.9127602 30.8475127,36.1899005 30.3418477,36.4606697 C29.5896041,36.8633484 28.7115533,37.2030407 27.6582335,37.4989321 C26.5950863,37.7972851 25.4680203,38.0210679 24.2128731,38.1836742 C23.2583147,38.3074027 22.3001827,38.3873303 21.3539086,38.4215566 C21.2972183,38.4243982 21.2401421,38.4314932 21.1778274,38.4427873 L18.7647513,38.4427873 C18.7012589,38.4314932 18.6382132,38.4236742 18.5771371,38.4219367 C17.3862335,38.3795113 16.2008528,38.2685249 15.0543756,38.0910769 C13.3653604,37.8301538 11.940467,37.4646154 10.6975838,36.9728688 C9.91163452,36.6621538 9.27870051,36.326009 8.76190863,35.944543 C8.44548223,35.711276 8.19963452,35.4747511 8.01007107,35.222371 C7.84820305,35.0059729 7.74237563,34.7800905 7.68682234,34.5312579 L7.50164467,33.6983891 C7.33151269,32.9362534 7.1617665,32.1736833 6.99484264,31.4111855 C6.79650761,30.5054842 6.60142132,29.5991131 6.41502538,28.655638 C7.26247716,29.1826968 8.23293401,29.6493032 9.44519797,30.1145339 C11.0882437,30.7455566 12.8834924,31.223095 14.7815635,31.5338281 C15.8558376,31.7099005 16.9630863,31.8308054 18.0722843,31.8929955 C19.2069036,31.9569955 20.3744162,31.9626425 21.5427411,31.9078371 C23.7171168,31.8071312 25.8261117,31.4917647 27.8101929,30.9710588 C29.6764264,30.4821719 31.2980305,29.8649774 32.7692995,29.0830045 C33.0278985,28.9451584 33.2773198,28.7938462 33.5267411,28.6421719 L33.5311269,28.6393484 C33.327269,29.6033303 33.1191269,30.5677466 32.9076954,31.5313665 Z" id="Shape"></path>
                        <path d="M31.6379289,4.19540271 C31.1818071,3.9801629 30.7122843,3.84224434 30.2728934,3.72561086 C29.4154721,3.49791855 28.462132,3.31627149 27.2724467,3.15366516 C26.0696041,2.98924887 24.8069036,2.87297738 23.4137665,2.79833484 C22.7720609,2.76372851 22.1296244,2.74461538 21.4443858,2.72448869 C19.6054416,2.6721448 17.6824365,2.70892308 15.7265381,2.83402715 C14.4583147,2.9160362 13.3094822,3.03377376 12.2149036,3.19428054 C11.0882437,3.35971041 10.2312284,3.53368326 9.43691371,3.75884163 C8.91703553,3.90552036 8.50420305,4.05574661 8.13612183,4.23254299 C7.91447716,4.33961991 7.62696447,4.49274208 7.37039594,4.73028054 C6.73900508,5.31531222 6.74217259,6.06161086 7.37591878,6.62892308 C7.56507614,6.79971041 7.77210152,6.94110407 7.99181726,7.04962896 C8.31425381,7.20868778 8.60962437,7.33386425 8.89356345,7.4321086 C9.91675127,7.78771041 10.9902944,7.98428959 11.9055431,8.12959276 C13.4434924,8.37386425 15.1003452,8.53328507 16.9710457,8.61739367 C17.6765076,8.64890498 18.3831878,8.66548416 19.0843452,8.68141176 L20.0519797,8.7040724 L20.9410761,8.68068778 C21.5459086,8.66548416 22.1455431,8.65028054 22.7446904,8.63051584 C23.9439594,8.59091403 25.2038985,8.49793665 26.4899898,8.35337557 C27.6939695,8.21799095 28.6869442,8.05920362 29.6149442,7.85281448 C30.1547208,7.73292308 30.8633503,7.55829864 31.5526497,7.26740271 C31.7810355,7.17160181 32.1197157,7.01639819 32.4247107,6.77668778 C32.9310863,6.37864253 33.0306599,5.964 33.0251371,5.68651584 C33.019533,5.41075113 32.904934,5.00314932 32.391797,4.62848869 C32.1363858,4.44074208 31.8555939,4.29900452 31.6379289,4.19540271 Z M30.8594518,5.95800905 C30.2978274,6.19482353 29.6895025,6.3440362 29.222335,6.4479276 C28.3582538,6.6399276 27.4254619,6.78870588 26.2869442,6.91670588 C25.0480406,7.056 23.8365076,7.14577376 22.6848325,7.18327602 C22.0899898,7.20304072 21.4947411,7.21824434 20.8942944,7.23344796 L20.0519797,7.25676018 L19.1264162,7.23417195 C18.438335,7.21824434 17.744731,7.20231674 17.0523452,7.17160181 C15.2506802,7.09031674 13.6604264,6.93755656 12.1902944,6.70421719 C11.3107005,6.56427149 10.3736041,6.39247059 9.48247716,6.08282353 C9.26635533,6.007819 9.03553299,5.90957466 8.77855838,5.78300452 C8.72584772,5.75688688 8.67232487,5.72363801 8.61206091,5.67623529 C8.68460914,5.62287783 8.77977665,5.56843439 8.90785787,5.50660633 C9.18270051,5.37467873 9.5066802,5.25770136 9.92787817,5.13889593 C10.6456853,4.93567421 11.4324467,4.77661538 12.4790254,4.62313122 C13.5244061,4.46970136 14.6249137,4.35699548 15.8435736,4.27851584 C17.7435127,4.1558009 19.6098274,4.12047059 21.4340711,4.17281448 C22.061401,4.19149321 22.6888122,4.20988235 23.3158173,4.24347511 C24.6594315,4.31558371 25.8728934,4.42729412 27.026132,4.58461538 C28.1405076,4.73701357 29.0249137,4.90526697 29.8088934,5.11348416 C30.168203,5.20888688 30.546132,5.31851584 30.8756954,5.47402715 C31.0101117,5.53802715 31.1778274,5.62179186 31.3166294,5.7161991 C31.2056244,5.79714027 31.0628223,5.87243439 30.8594518,5.95800905 Z" id="Shape"></path>
                        <path d="M19.9639391,13.2479819 C19.963533,13.2479819 19.962802,13.2479819 19.962802,13.2479819 C18.0948629,13.2479819 16.346802,13.8903167 15.0404873,15.0565792 C13.7699086,16.1909683 13.0715127,17.6908597 13.073868,19.2799276 C13.0786599,22.5919276 16.1711269,25.2838371 19.9695431,25.283457 C19.9718985,25.283457 19.9746599,25.283457 19.9770152,25.283457 C21.8107614,25.2817376 23.5366497,24.6549864 24.8378477,23.5187692 C26.1437563,22.3787149 26.8611574,20.8653756 26.8583959,19.2583529 C26.852467,15.9438914 23.7599188,13.2479819 19.9639391,13.2479819 Z M23.7008731,22.4847783 C22.7050558,23.3544253 21.3820914,23.8341357 19.9754721,23.8354932 C19.9730355,23.8354932 19.9715127,23.8354932 19.9695431,23.8354932 C17.0661523,23.8354932 14.7018071,21.7919276 14.6982335,19.2777557 C14.6962843,18.0758733 15.2260711,16.9400181 16.190132,16.079638 C17.1895228,15.1873303 18.5291371,14.6959457 19.9623959,14.6959457 C19.9631269,14.6959457 19.9631269,14.6959457 19.9639391,14.6959457 C22.8653198,14.6959457 25.2296447,16.743457 25.2340305,19.2604525 C25.2359797,20.4744253 24.6919188,21.6193846 23.7008731,22.4847783 Z" id="Shape"></path>
                        <path d="M39.8235939,5.68188235 C39.799797,5.59174661 39.7743756,5.50233484 39.7422944,5.41748416 C39.560203,4.93176471 39.2334619,4.48354751 38.7437157,4.04662443 C38.2249746,3.58421719 37.5920406,3.18052489 36.7505381,2.7761086 C35.8792284,2.35784615 34.9258883,2.00506787 33.7500102,1.66537557 C32.344203,1.25951131 30.8447513,0.935384615 29.2937462,0.702045249 C28.3744975,0.563475113 27.4690761,0.444361991 26.6029848,0.348235294 C25.8617665,0.265484163 25.0841015,0.200108597 24.2921421,0.153773756 C23.585868,0.112434389 22.8783756,0.0844886878 22.1712893,0.0561809955 L21.2607513,0.0197647059 L21.114802,0 L18.8083655,0.00108597285 L17.269198,0.0749321267 C16.6200203,0.105701357 15.9704365,0.136108597 15.3220711,0.174986425 C14.3401421,0.232959276 13.2892589,0.335855204 12.1085888,0.488904977 C9.47256853,0.830769231 7.34058883,1.28072398 5.39898477,1.90573756 C4.23350254,2.28119457 3.30274112,2.67533032 2.47033503,3.14620814 C1.87898477,3.48061538 1.40548223,3.82530317 1.02278173,4.2000362 C0.517604061,4.69523982 0.211005076,5.20043439 0.0864974619,5.74515837 L0,5.92123077 L0,6.40128507 L0.325624365,8.13104072 C0.491370558,9.07417195 0.657137056,10.0173032 0.830862944,10.9586968 C1.0457665,12.1280724 1.27262944,13.2960724 1.4991269,14.4640724 L3.2293198,23.254371 C3.29989848,23.622371 3.46014213,23.9766154 3.70525888,24.3067511 C4.00105584,24.7066063 4.38253807,25.0696109 4.90647716,25.4493394 C5.62387817,25.9682172 6.4471066,26.4146968 7.49725888,26.8541538 C8.75516751,27.3804887 10.1356345,27.8057557 11.7176041,28.153991 C12.9687716,28.4296833 14.2596548,28.6344253 15.6631066,28.7793665 C17.0416244,28.9228597 18.4791878,28.9949683 19.9520812,28.9949683 C20.3839188,28.9949683 20.8186193,28.9885973 21.2559594,28.9762172 C23.6842234,28.9069321 25.9074112,28.648905 28.052467,28.1875837 C29.9207513,27.785991 31.5208934,27.2762353 32.9449746,26.6292851 C33.7829848,26.2482534 34.4805685,25.8491222 35.0781726,25.4086516 C35.4410558,25.1407059 35.7427817,24.8705882 35.9998376,24.5832398 C36.3809137,24.1572489 36.6260305,23.6658824 36.7278782,23.1221719 C36.8635127,22.3978281 37.0086701,21.6752941 37.1534619,20.9526878 L38.5057462,14.0766697 C38.6826396,13.1635113 38.8587208,12.2493394 39.0312284,11.3358914 C39.1913909,10.4857195 39.3520406,9.63518552 39.5059492,8.78463348 C39.5864365,8.34309502 39.661401,7.90088688 39.7362843,7.45829864 L39.8192081,6.9679638 L39.8735431,5.95019005 L39.8235939,5.68188235 Z M38.1297868,7.24264253 C38.0560406,7.67956561 37.9822944,8.11648869 37.9025381,8.55341176 C37.7491168,9.40112217 37.5892792,10.2488326 37.4290355,11.0958914 C37.2573401,12.0075294 37.0812589,12.9196018 36.9051777,13.8302262 L35.5544365,20.6978462 C35.4084873,21.4256652 35.2625381,22.1539186 35.1257665,22.8831855 C35.0690761,23.185086 34.9397766,23.4456471 34.7295838,23.680362 C34.5427817,23.8893032 34.3182944,24.0897014 34.0427208,24.2926335 C33.537868,24.664905 32.9374213,25.0070588 32.2069442,25.3393665 C30.8982741,25.9339729 29.4146599,26.4052127 27.6717157,26.7798733 C25.635736,27.2178824 23.52,27.4628778 21.2040609,27.5289774 C19.3543959,27.5820452 17.5543553,27.5183891 15.8507208,27.3412489 C14.5154112,27.2030407 13.2912081,27.0093032 12.1070457,26.7484525 C10.6301726,26.4232398 9.34806091,26.0290317 8.18769543,25.5433122 C7.25969543,25.1551855 6.54229442,24.7680724 5.93080203,24.3258643 C5.53973604,24.041991 5.26335025,23.7825158 5.06030457,23.5085611 C4.93855838,23.3445068 4.86318782,23.1815385 4.83070051,23.0104615 L3.09969543,14.2173394 C2.87398985,13.0536109 2.64795939,11.8897919 2.4337868,10.7243439 C2.2608731,9.78613575 2.09551269,8.84611765 1.93055838,7.90653394 L1.67480203,6.45820814 C1.66448731,6.40056109 1.64785787,6.34367421 1.62436548,6.27931222 L1.62436548,6.22486878 C1.64263959,6.1799819 1.65969543,6.12771041 1.67041624,6.06970136 C1.72791878,5.77346606 1.904,5.48850679 2.22481218,5.17393665 C2.51191878,4.89288688 2.86643655,4.63694118 3.34034518,4.36901357 C4.07049746,3.9561267 4.90014213,3.60615385 5.95061929,3.26747511 C7.78680203,2.67677828 9.81760406,2.24933937 12.3425787,1.92200905 C13.4807716,1.77426244 14.490802,1.67529412 15.430335,1.61938462 C16.0715533,1.58124887 16.7132589,1.55120362 17.3548832,1.52115837 L18.2269442,1.47945701 L20.9922437,1.4479638 C21.0446294,1.45534842 21.0977462,1.46135747 21.1532995,1.46425339 L22.0986802,1.50276923 C22.7947208,1.53033484 23.4907005,1.55793665 24.1859289,1.59891403 C24.946132,1.64307692 25.6917157,1.70570136 26.4019492,1.78483258 C27.2450761,1.87851584 28.1270254,1.99449774 29.0232893,2.12952036 C30.4965888,2.35149321 31.9187208,2.65875113 33.2491371,3.04260633 C34.3298274,3.35476923 35.1975635,3.67543891 35.9799391,4.05082353 C36.6779289,4.38631674 37.1911472,4.71015385 37.5943959,5.07033484 L37.594802,5.07033484 C37.9069442,5.34856109 38.0996548,5.60485068 38.2031269,5.8798914 C38.2198579,5.92441629 38.2309036,5.97075113 38.2432487,6.01636199 L38.2491777,6.52923077 L38.1297868,7.24264253 Z" id="Shape"></path>
                    </g>
                </g>
            </g>
        </g>
    </g>
</svg>