
<svg width="40px" height="40px" viewBox="0 0 40 40" version="1.1" xmlns="http://www.w3.org/2000/svg" xmlns:xlink="http://www.w3.org/1999/xlink">
    <!-- Generator: Sketch 48.2 (47327) - http://www.bohemiancoding.com/sketch -->
    <desc>Created with Sketch.</desc>
    <defs>
        <linearGradient x1="1.41638472e-14%" y1="50%" x2="100%" y2="50%" id="linearGradient-1">
            <stop stop-color="#874DA2" offset="0%"></stop>
            <stop stop-color="#C43A30" offset="100%"></stop>
        </linearGradient>
    </defs>
    <g id="hero" stroke="none" stroke-width="1" fill="none" fill-rule="evenodd">
        <g id="about" transform="translate(-627.000000, -333.000000)" fill="url(#linearGradient-1)" fill-rule="nonzero">
            <g id="social-icons" transform="translate(477.000000, 331.000000)">
                <g id="github" transform="translate(150.000000, 2.000000)">
                    <path d="M20,0 C8.95429687,0 0,8.95429687 0,20 C0,31.0457031 8.95429687,40 20,40 C31.0457031,40 40,31.0457031 40,20 C40,8.95429688 31.0457031,0 20,0 Z M31.8771094,31.8771094 C30.3333594,33.4207812 28.5367969,34.6323437 26.5369531,35.4782031 C26.0289844,35.6930469 25.513125,35.8816406 24.99,36.0442969 L24.99,33.046875 C24.99,31.4713281 24.4496875,30.3125 23.3689063,29.5703125 C24.0460938,29.5052344 24.6677344,29.4140625 25.2341406,29.296875 C25.8005469,29.1796875 26.3996094,29.0103906 27.0310156,28.7890625 C27.6625781,28.5677344 28.2289844,28.3040625 28.7302344,27.9980469 C29.2316406,27.6920312 29.7133594,27.2949219 30.1755469,26.8066406 C30.6378906,26.3183594 31.0251563,25.765 31.3376563,25.1464844 C31.6501562,24.5279687 31.8976563,23.7857812 32.0798438,22.9199219 C32.2621875,22.0540625 32.3532812,21.1002344 32.3532812,20.0585937 C32.3532812,18.0403906 31.6957812,16.3216406 30.380625,14.9023437 C30.9796875,13.3398437 30.9145313,11.640625 30.1853125,9.8046875 L29.6970313,9.74609375 C29.3585938,9.70703125 28.7497656,9.85023437 27.8708594,10.1757812 C26.9919531,10.5013281 26.005625,11.0351562 24.911875,11.7773437 C23.3625,11.3476562 21.754375,11.1328125 20.0877344,11.1328125 C18.4080469,11.1328125 16.8064844,11.3476562 15.2830469,11.7773437 C14.5929687,11.3085937 13.9386719,10.92125 13.3201562,10.6152344 C12.7016406,10.3092187 12.206875,10.1009375 11.8357813,9.99023437 C11.4646875,9.87953125 11.1196094,9.81117187 10.800625,9.78515625 C10.4816406,9.75914062 10.2765625,9.75257812 10.1853906,9.765625 C10.0942187,9.77867187 10.0291406,9.79164062 9.99007813,9.8046875 C9.2609375,11.6536719 9.19578125,13.3528906 9.79476563,14.9023437 C8.4796875,16.3216406 7.82210937,18.0403906 7.82210937,20.0585937 C7.82210937,21.1002344 7.91328125,22.0540625 8.09554688,22.9199219 C8.2778125,23.7857812 8.52523438,24.5279687 8.83773438,25.1464844 C9.15023438,25.765 9.53757812,26.3183594 9.99984375,26.8066406 C10.4621094,27.2949219 10.9438281,27.6920312 11.4451562,27.9980469 C11.9464844,28.3040625 12.5128906,28.5677344 13.144375,28.7890625 C13.7758594,29.0103906 14.3748437,29.1796875 14.94125,29.296875 C15.5076563,29.4140625 16.129375,29.5052344 16.8064844,29.5703125 C15.73875,30.2994531 15.2049219,31.4583594 15.2049219,33.046875 L15.2049219,36.1027344 C14.6151562,35.9271875 14.0338281,35.7197656 13.4627344,35.4782031 C11.4629687,34.6323437 9.66632812,33.4207812 8.12265625,31.8771094 C6.5790625,30.3335156 5.36742187,28.5367969 4.52164062,26.5369531 C3.64679688,24.4683594 3.203125,22.2689844 3.203125,20 C3.203125,17.7310156 3.64679688,15.5316406 4.52179688,13.4628906 C5.36765625,11.463125 6.57921875,9.66648437 8.1228125,8.1228125 C9.66640625,6.57914062 11.463125,5.36757812 13.4628906,4.52179687 C15.5316406,3.64679687 17.7310156,3.203125 20,3.203125 C22.2689844,3.203125 24.4683594,3.64679687 26.5371875,4.52179687 C28.5370312,5.36765625 30.3335937,6.57921875 31.8773437,8.1228125 C33.4209375,9.66640625 34.6325,11.463125 35.4782812,13.4628906 C36.353125,15.5316406 36.796875,17.7310156 36.796875,20 C36.796875,22.2689844 36.353125,24.4683594 35.4782031,26.5371094 C34.6324219,28.5367969 33.4207031,30.3335937 31.8771094,31.8771094 Z" id="Shape"></path>
                </g>
            </g>
        </g>
    </g>
</svg>