
<svg width="40px" height="40px" viewBox="0 0 40 40" version="1.1" xmlns="http://www.w3.org/2000/svg" xmlns:xlink="http://www.w3.org/1999/xlink">
    <!-- Generator: Sketch 48.2 (47327) - http://www.bohemiancoding.com/sketch -->
    <desc>Created with Sketch.</desc>
    <defs>
        <linearGradient x1="1.41638472e-14%" y1="50%" x2="100%" y2="50%" id="linearGradient-1">
            <stop stop-color="#874DA2" offset="0%"></stop>
            <stop stop-color="#C43A30" offset="100%"></stop>
        </linearGradient>
    </defs>
    <g id="hero" stroke="none" stroke-width="1" fill="none" fill-rule="evenodd">
        <g id="about" transform="translate(-477.000000, -331.000000)" fill="url(#linearGradient-1)" fill-rule="nonzero">
            <g id="social-icons" transform="translate(477.000000, 331.000000)">
                <g id="linkedin-logo">
                    <path d="M36.9703016,0 L2.94960557,0 C1.32055684,0 0.000185614849,1.28009281 0.000185614849,2.8600464 L0.000185614849,37.056891 C0.000185614849,38.6369374 1.32102088,39.9181439 2.94960557,39.9181439 L36.9703016,39.9181439 C38.5989791,39.9181439 39.9178654,38.6361021 39.9178654,37.056891 L39.9178654,2.8600464 C39.9178654,1.28055684 38.5989791,0 36.9703016,0 Z M12.1020882,33.4141995 L6.07081206,33.4141995 L6.07081206,15.3916473 L12.1020882,15.3916473 L12.1020882,33.4141995 Z M9.08705336,12.9294664 L9.04649652,12.9294664 C7.02394432,12.9294664 5.71285383,11.5462645 5.71285383,9.81457077 C5.71285383,8.04798144 7.0624594,6.70227378 9.12510441,6.70227378 C11.187935,6.70227378 12.4567981,8.04761021 12.496891,9.81457077 C12.496891,11.5466357 11.1883991,12.9294664 9.08705336,12.9294664 Z M33.8430626,33.4141995 L27.8137355,33.4141995 L27.8137355,23.7715081 C27.8137355,21.3485847 26.9401392,19.6953132 24.7597216,19.6953132 C23.0916937,19.6953132 22.1015313,20.8106729 21.6667285,21.8875174 C21.5056148,22.2721114 21.4657077,22.8100232 21.4657077,23.3471926 L21.4657077,33.4138283 L15.4374942,33.4138283 C15.4374942,33.4138283 15.5163805,17.0816705 15.4374942,15.3913689 L21.4666357,15.3913689 L21.4666357,17.9464501 C22.267007,16.7187007 23.6972622,14.9673318 26.8990255,14.9673318 C30.867471,14.9673318 33.8430626,17.5417169 33.8430626,23.08 L33.8430626,33.4141995 Z M21.4276566,18.0189638 C21.4387566,17.9975521 21.4542566,17.9717874 21.4696566,17.9467285 L21.4696566,18.0189638 L21.4276566,18.0189638 Z" id="LinkedIn__x28_alt_x29_"></path>
                </g>
            </g>
        </g>
    </g>
</svg>