
<svg width="28px" height="35px" viewBox="0 0 28 35" version="1.1" xmlns="http://www.w3.org/2000/svg" xmlns:xlink="http://www.w3.org/1999/xlink">
    <!-- Generator: Sketch 48.2 (47327) - http://www.bohemiancoding.com/sketch -->
    <desc>Created with Sketch.</desc>
    <defs>
        <linearGradient x1="1.41638472e-14%" y1="50%" x2="100%" y2="50%" id="linearGradient-1">
            <stop stop-color="#874DA2" offset="0%"></stop>
            <stop stop-color="#C43A30" offset="100%"></stop>
        </linearGradient>
    </defs>
    <g id="hero" stroke="none" stroke-width="1" fill="none" fill-rule="evenodd">
        <g id="about" transform="translate(-702.000000, -335.000000)" fill="url(#linearGradient-1)" fill-rule="nonzero">
            <g id="social-icons" transform="translate(477.000000, 331.000000)">
                <g id="stack-overflow" transform="translate(225.000000, 4.000000)">
                    <path d="M20.994,20.416 C21.775,20.416 22.545,20.416 23.313,20.416 C23.313,25.158 23.313,29.898 23.313,34.641 C15.777,34.641 8.256,34.641 0.728,34.641 C0.728,29.897 0.728,25.162 0.728,20.416 C1.497,20.416 2.266,20.416 3.046,20.416 C3.046,24.387 3.046,28.354 3.046,32.336 C9.028,32.336 15,32.336 20.992,32.336 C20.994,28.359 20.994,24.393 20.994,20.416 Z M14.389,4.498 C16.961,8.27 19.527,12.031 22.096,15.798 C22.908,15.243 23.707,14.698 24.51,14.151 C21.934,10.375 19.37,6.617 16.803,2.852 C15.995,3.402 15.199,3.945 14.389,4.498 Z M21.622,16.196 C17.686,13.875 13.768,11.564 9.842,9.248 C9.343,10.093 8.853,10.923 8.356,11.765 C12.282,14.08 16.203,16.392 20.138,18.713 C20.637,17.866 21.129,17.034 21.622,16.196 Z M25.571,0 C24.606,0.168 23.661,0.333 22.692,0.5 C23.472,4.999 24.254,9.481 25.032,13.974 C26.004,13.806 26.954,13.64 27.912,13.474 C27.131,8.97 26.352,4.487 25.571,0 Z M19.897,19.539 C15.487,18.351 11.094,17.172 6.689,15.987 C6.435,16.929 6.184,17.862 5.929,18.809 C10.338,19.995 14.735,21.175 19.138,22.36 C19.395,21.412 19.645,20.479 19.897,19.539 Z M18.658,27.104 C14.1,27.104 9.555,27.104 5.004,27.104 C5.004,28.083 5.004,29.046 5.004,30.009 C9.563,30.009 14.108,30.009 18.658,30.009 C18.658,29.031 18.658,28.066 18.658,27.104 Z M19,23.349 C14.453,22.931 9.922,22.511 5.381,22.095 C5.29,23.072 5.2,24.033 5.11,25.005 C9.657,25.423 14.189,25.841 18.73,26.259 C18.821,25.281 18.909,24.32 19,23.349 Z" id="Shape"></path>
                </g>
            </g>
        </g>
    </g>
</svg>