<svg width="70" height="41" viewBox="0 0 70 41" version="1.1" xmlns="http://www.w3.org/2000/svg" xmlns:xlink="http://www.w3.org/1999/xlink">
<title>Shape</title>
<desc>Created using Figma</desc>
<g id="Canvas" transform="translate(-283 -1859)">
<g id="Shape">
<use xlink:href="#path0_fill" transform="translate(283 1859)" fill="url(#paint0_linear)"/>
</g>
</g>
<defs>
<linearGradient id="paint0_linear" x1="0" y1="0" x2="1" y2="0" gradientUnits="userSpaceOnUse" gradientTransform="matrix(70 4.55191e-15 -7.77156e-15 41 0 20.5)">
<stop offset="0" stop-color="#874DA2"/>
<stop offset="1" stop-color="#C43A30"/>
</linearGradient>
<path id="path0_fill" fill-rule="evenodd" d="M 8.75 26.3572L 14.5833 26.3572L 14.5833 0L 8.75 0L 8.75 26.3572ZM 0 26.3571L 5.83334 26.3571L 5.83334 11.7142L 0 11.7142L 0 26.3571ZM 23.3333 26.3572L 17.5 26.3572L 17.5 5.85718L 23.3333 5.85718L 23.3333 26.3572ZM 26.25 26.3572L 32.0833 26.3572L 32.0833 17.5714L 26.25 17.5714L 26.25 26.3572ZM 70 36.859L 61.7429 28.5653C 63.2654 26.2517 64.1667 23.4843 64.1667 20.5C 64.1667 12.4143 57.6392 5.85718 49.5833 5.85718C 41.5275 5.85718 35 12.4143 35 20.5C 35 28.5858 41.5275 35.1429 49.5833 35.1429C 52.5554 35.1429 55.3117 34.2379 57.6187 32.7063L 65.8758 41L 70 36.859ZM 49.5833 11.7142C 44.7592 11.7142 40.8333 15.6561 40.8333 20.5C 40.8333 25.3438 44.7592 29.2856 49.5833 29.2856C 54.4075 29.2856 58.3333 25.3438 58.3333 20.5C 58.3333 15.6561 54.4075 11.7142 49.5833 11.7142Z"/>
</defs>
</svg>
